<?xml version="1.0" encoding="UTF-8"?>
<svg viewBox="0 0 29 29" xmlns="http://www.w3.org/2000/svg">

  <line x1="164.06" x2="164.06" y1=".58" y2="28.42" stroke="#fff" stroke-linecap="round"/>
  <g transform="matrix(.30851 0 0 .30851 -.92553 -.92553)" color="#ffffff" fill="#fff">
    <path
      d="m50 18.8c-8.3 0-16.2 3.3-22.1 9.2-12.2 12.2-12.2 32 0 44.2 6.1 6 14.1 9 22.1 9s16-3 22.1-9.1c12.2-12.2 12.2-32 0-44.2-5.9-5.9-13.8-9.1-22.1-9.1zm-15.8 47c-6.5-6.5-8.2-16.2-4.9-24.2l11.9 6.6c-0.6 2.9 0.2 6 2.4 8.2 1.8 1.6 4 2.6 6.4 2.6 0.6 0 1.3-0.1 1.9-0.2l6.6 11.9c-8.1 3.3-17.7 1.6-24.3-4.9zm36.5-7.3-11.9-6.6c0.6-2.9-0.2-6-2.4-8.2s-5.3-3-8.2-2.4l-6.6-11.9c2.6-1.1 5.5-1.7 8.5-1.7 6 0 11.6 2.3 15.8 6.5 6.4 6.6 8.1 16.2 4.8 24.3z"/>
    <path
      d="m86.8 3h-73.6c-5.6 0-10.2 4.6-10.2 10.2v73.6c0 5.6 4.6 10.2 10.2 10.2h73.6c5.6 0 10.2-4.6 10.2-10.2v-73.6c0-5.6-4.6-10.2-10.2-10.2zm0.7 83.8c0 0.4-0.3 0.7-0.7 0.7h-73.6c-0.4 0-0.7-0.3-0.7-0.7v-73.6c0-0.4 0.3-0.7 0.7-0.7h73.6c0.4 0 0.7 0.3 0.7 0.7z"/>
  </g>
  <g transform="matrix(.29 0 0 .29 119.93 39.877)" color="#ffffff" fill="#fff">
    <path
      d="m50 18.8c-8.3 0-16.2 3.3-22.1 9.2-12.2 12.2-12.2 32 0 44.2 6.1 6 14.1 9 22.1 9s16-3 22.1-9.1c12.2-12.2 12.2-32 0-44.2-5.9-5.9-13.8-9.1-22.1-9.1zm-15.8 47c-6.5-6.5-8.2-16.2-4.9-24.2l11.9 6.6c-0.6 2.9 0.2 6 2.4 8.2 1.8 1.6 4 2.6 6.4 2.6 0.6 0 1.3-0.1 1.9-0.2l6.6 11.9c-8.1 3.3-17.7 1.6-24.3-4.9zm36.5-7.3-11.9-6.6c0.6-2.9-0.2-6-2.4-8.2s-5.3-3-8.2-2.4l-6.6-11.9c2.6-1.1 5.5-1.7 8.5-1.7 6 0 11.6 2.3 15.8 6.5 6.4 6.6 8.1 16.2 4.8 24.3z"/>
    <path
      d="m86.8 3h-73.6c-5.6 0-10.2 4.6-10.2 10.2v73.6c0 5.6 4.6 10.2 10.2 10.2h73.6c5.6 0 10.2-4.6 10.2-10.2v-73.6c0-5.6-4.6-10.2-10.2-10.2zm0.7 83.8c0 0.4-0.3 0.7-0.7 0.7h-73.6c-0.4 0-0.7-0.3-0.7-0.7v-73.6c0-0.4 0.3-0.7 0.7-0.7h73.6c0.4 0 0.7 0.3 0.7 0.7z"/>
  </g>
</svg>
