<?xml version="1.0" encoding="UTF-8"?>
<svg width="700pt" height="700pt" viewBox="0 0 700 700" xmlns="http://www.w3.org/2000/svg">
  <metadata>Created by potrace 1.14, written by Peter Selinger 2001-2017</metadata>
  <g transform="translate(0 700) scale(.1 -.1)">
    <path d="m3255 6988c-972-65-1883-542-2491-1304-417-523-667-1135-746-1829-18-164-15-579 6-755 133-1122 776-2093 1753-2649 628-357 1395-511 2128-426 1170 135 2186 843 2716 1893 562 1111 490 2449-188 3491-694 1066-1899 1665-3178 1579zm595-1193c756-115 1405-588 1739-1269 162-331 235-649 235-1026 0-228-14-350-65-560-187-767-771-1399-1520-1644-250-82-467-116-743-116-377 0-711 78-1047 245-782 388-1269 1180-1269 2061 0 192 12 312 46 479 122 586 473 1096 1010 1471 220 153 534 283 820 340 229 45 567 53 794 19z"/>
    <path d="m3330 5150c-122-15-228-39-340-76-57-19-106-37-108-39s105-201 238-442l243-438h136c122-1 144-4 216-29 205-71 356-221 422-419 24-73 27-98 27-218l1-136 55-30c30-17 226-125 434-242 209-116 383-211 386-211 4 0 21 42 38 93 145 421 110 883-97 1295-235 468-676 791-1200 878-108 19-353 26-451 14z"/>
    <path d="m1952 4103c-19-35-64-189-83-283-26-126-35-372-20-510 43-368 208-713 466-975 448-455 1126-618 1723-413 50 17 92 35 92 39s-95 177-211 385c-117 209-226 405-243 436l-31 57-100-5c-125-7-219 11-330 65-180 87-291 212-352 396-23 70-27 97-27 212l-1 132-430 237c-236 131-433 239-437 241s-11-4-16-14z"/>
  </g>
</svg>
